<svg width="16" height="16" viewBox="0 0 16 16" fill="none" xmlns="http://www.w3.org/2000/svg">
<path d="M15.9219 5.76875L14.3406 1.025C14.1375 0.4125 13.5656 0 12.9187 0H3.08125C2.43437 0 1.8625 0.4125 1.65937 1.025L0.078125 5.76875C0.028125 5.92188 0 6.08125 0 6.24375V14.5C0 15.3281 0.671875 16 1.5 16H14.5C15.3281 16 16 15.3281 16 14.5V6.24375C16 6.08125 15.975 5.92188 15.9219 5.76875ZM1 6.24375C1 6.19063 1.00937 6.1375 1.025 6.08437L2.60625 1.34063C2.675 1.1375 2.86562 1 3.08125 1H7.5V6.25H1V6.24375ZM15 14.5C15 14.775 14.775 15 14.5 15H1.5C1.225 15 1 14.775 1 14.5V7.25H15V14.5ZM15 6.25H8.5V1H12.9187C13.1344 1 13.325 1.1375 13.3938 1.34063L14.975 6.08437C14.9906 6.13438 15 6.1875 15 6.24375V6.25Z" fill="black" stroke="black" stroke-width="0.03125"/>
</svg>
