<svg width="20" height="15" viewBox="0 0 20 15" fill="none" xmlns="http://www.w3.org/2000/svg">
<path d="M8.75 5C8.8875 5 9 4.8875 9 4.75V4.25C9 4.1125 8.8875 4 8.75 4H1.25C1.1125 4 1 4.1125 1 4.25V4.75C1 4.8875 1.1125 5 1.25 5H8.75ZM19.75 11H19V7.62187C19 7.09687 18.7875 6.58125 18.4125 6.20937L15.7906 3.5875C15.4219 3.2125 14.9062 3 14.3781 3H13V1.45625C13 0.653125 12.3063 0 11.4563 0H3.54375C2.69375 0 2 0.653125 2 1.45625V2H0.25C0.1125 2 0 2.1125 0 2.25V2.75C0 2.8875 0.1125 3 0.25 3H7.75C7.8875 3 8 2.8875 8 2.75V2.25C8 2.1125 7.8875 2 7.75 2H3V1.45625C3 1.20312 3.24375 1 3.54375 1H11.4563C11.7563 1 12 1.20312 12 1.45625V11H6.4875C6.03125 10.3969 5.3125 10 4.5 10C3.93438 10 3.41875 10.1937 3 10.5125V8H2V12.5C2 13.8813 3.11875 15 4.5 15C5.88125 15 7 13.8813 7 12.5C7 12.3281 6.98125 12.1625 6.95 12H13.05C13.0156 12.1625 13 12.3281 13 12.5C13 13.8813 14.1187 15 15.5 15C16.8813 15 18 13.8813 18 12.5C18 12.3281 17.9813 12.1625 17.95 12H19.75C19.8875 12 20 11.8875 20 11.75V11.25C20 11.1125 19.8875 11 19.75 11ZM4.5 14C3.67188 14 3 13.3281 3 12.5C3 11.6719 3.67188 11 4.5 11C5.32812 11 6 11.6719 6 12.5C6 13.3281 5.32812 14 4.5 14ZM13 4H14.3781C14.6406 4 14.9 4.10625 15.0844 4.29375L17.7062 6.91563C17.7312 6.94063 17.7406 6.975 17.7625 7.00313H13V4ZM15.5 14C14.6719 14 14 13.3281 14 12.5C14 11.6719 14.6719 11 15.5 11C16.3281 11 17 11.6719 17 12.5C17 13.3281 16.3281 14 15.5 14ZM18 11H17.4875C17.0312 10.3969 16.3125 10 15.5 10C14.6875 10 13.9688 10.3969 13.5125 11H13V8H18V11ZM8 6.75V6.25C8 6.1125 7.8875 6 7.75 6H0.25C0.1125 6 0 6.1125 0 6.25V6.75C0 6.8875 0.1125 7 0.25 7H7.75C7.8875 7 8 6.8875 8 6.75Z" fill="black" stroke="black" stroke-width="0.03125"/>
</svg>
