<svg width="20" height="13" viewBox="0 0 20 13" fill="none" xmlns="http://www.w3.org/2000/svg">
<path d="M19.7693 5.65407C17.8115 2.33178 14.1601 0.111328 10 0.111328C5.83821 0.111328 2.18766 2.33334 0.23078 5.65407C0.0796862 5.91046 0 6.20263 0 6.50023C0 6.79783 0.0796862 7.09001 0.23078 7.3464C2.18859 10.6687 5.83995 12.8891 10 12.8891C14.1618 12.8891 17.8124 10.6671 19.7693 7.34636C19.9203 7.08998 20 6.79781 20 6.50022C20 6.20262 19.9203 5.91046 19.7693 5.65407ZM10 11.2224C6.43904 11.2224 3.33019 9.3231 1.66668 6.50022C3.19991 3.89838 5.96102 2.08112 9.17231 1.81247C9.51245 2.16265 9.72224 2.64015 9.72224 3.16688C9.72224 4.24077 8.85168 5.11133 7.77779 5.11133C6.70391 5.11133 5.83335 4.24077 5.83335 3.16688L5.83338 3.16543C5.47898 3.8281 5.27779 4.58508 5.27779 5.38911C5.27779 7.99713 7.392 10.1113 10 10.1113C12.608 10.1113 14.7222 7.99713 14.7222 5.38911C14.7222 4.31164 14.3611 3.31865 13.7537 2.524C15.6842 3.32793 17.292 4.73306 18.3334 6.50022C16.6699 9.3231 13.561 11.2224 10 11.2224Z" fill="black" stroke="black" stroke-width="0.0347222"/>
</svg>
