<svg width="20" height="19" viewBox="0 0 20 19" fill="none" xmlns="http://www.w3.org/2000/svg">
<path d="M14.5096 6.53738H13.7371V4.99238C13.7371 2.86028 12.0067 1.12988 9.87458 1.12988C7.74248 1.12988 6.01208 2.86028 6.01208 4.99238V6.53738H5.23958C4.38983 6.53738 3.69458 7.23263 3.69458 8.08238V15.8074C3.69458 16.6571 4.38983 17.3524 5.23958 17.3524H14.5096C15.3593 17.3524 16.0546 16.6571 16.0546 15.8074V8.08238C16.0546 7.23263 15.3593 6.53738 14.5096 6.53738ZM9.87458 13.4899C9.02483 13.4899 8.32958 12.7946 8.32958 11.9449C8.32958 11.0951 9.02483 10.3999 9.87458 10.3999C10.7243 10.3999 11.4196 11.0951 11.4196 11.9449C11.4196 12.7946 10.7243 13.4899 9.87458 13.4899ZM7.55708 6.53738V4.99238C7.55708 3.71003 8.59223 2.67488 9.87458 2.67488C11.1569 2.67488 12.1921 3.71003 12.1921 4.99238V6.53738H7.55708Z" fill="#8A8A8A"/>
</svg>
