<svg width="59" height="12" viewBox="0 0 59 12" fill="none" xmlns="http://www.w3.org/2000/svg">
<path fill-rule="evenodd" clip-rule="evenodd" d="M7.52926 4.4985L6.19983 0.120972L4.8704 4.4985H0.365356L4.01024 7.33238L2.65747 11.7899L6.19983 9.03522L9.74219 11.7899L8.38943 7.33238L12.0343 4.4985H7.52926Z" fill="#FCA120"/>
<path fill-rule="evenodd" clip-rule="evenodd" d="M19.1982 4.4985L17.8688 0.120972L16.5394 4.4985H12.0343L15.6792 7.33238L14.3264 11.7899L17.8688 9.03522L21.4111 11.7899L20.0584 7.33238L23.7033 4.4985H19.1982Z" fill="#FCA120"/>
<path fill-rule="evenodd" clip-rule="evenodd" d="M30.867 4.4985L29.5376 0.120972L28.2082 4.4985H23.7031L27.348 7.33238L25.9952 11.7899L29.5376 9.03522L33.08 11.7899L31.7272 7.33238L35.3721 4.4985H30.867Z" fill="#FCA120"/>
<path fill-rule="evenodd" clip-rule="evenodd" d="M42.5361 4.4985L41.2067 0.120972L39.8772 4.4985H35.3722L39.0171 7.33238L37.6643 11.7899L41.2067 9.03522L44.749 11.7899L43.3963 7.33238L47.0411 4.4985H42.5361Z" fill="#FCA120"/>
<path fill-rule="evenodd" clip-rule="evenodd" d="M54.205 4.4985L52.8756 0.120972L51.5462 4.4985H47.0411L50.686 7.33238L49.3333 11.7899L52.8756 9.03522L56.418 11.7899L55.0652 7.33238L58.7101 4.4985H54.205Z" fill="#FCA120"/>
</svg>
